<?xml version="1.0" encoding="utf-8"?>
<!-- Generator: Adobe Illustrator 16.0.0, SVG Export Plug-In . SVG Version: 6.00 Build 0)  -->
<!DOCTYPE svg PUBLIC "-//W3C//DTD SVG 1.1//EN" "http://www.w3.org/Graphics/SVG/1.1/DTD/svg11.dtd" [
	<!ENTITY ns_extend "http://ns.adobe.com/Extensibility/1.0/">
	<!ENTITY ns_ai "http://ns.adobe.com/AdobeIllustrator/10.0/">
	<!ENTITY ns_graphs "http://ns.adobe.com/Graphs/1.0/">
	<!ENTITY ns_vars "http://ns.adobe.com/Variables/1.0/">
	<!ENTITY ns_imrep "http://ns.adobe.com/ImageReplacement/1.0/">
	<!ENTITY ns_sfw "http://ns.adobe.com/SaveForWeb/1.0/">
	<!ENTITY ns_custom "http://ns.adobe.com/GenericCustomNamespace/1.0/">
	<!ENTITY ns_adobe_xpath "http://ns.adobe.com/XPath/1.0/">
]>
<svg version="1.1" id="Layer_1" xmlns:x="&ns_extend;" xmlns:i="&ns_ai;" xmlns:graph="&ns_graphs;"
	 xmlns="http://www.w3.org/2000/svg" xmlns:xlink="http://www.w3.org/1999/xlink" x="0px" y="0px" width="275.216px"
	 height="114.665px" viewBox="-1.116 -0.465 275.216 114.665" enable-background="new -1.116 -0.465 275.216 114.665"
	 xml:space="preserve">
<metadata>
	<sfw  xmlns="&ns_sfw;">
		<slices></slices>
		<sliceSourceBounds  width="330" height="146" x="-63.5" y="25.5" bottomLeftOrigin="true"></sliceSourceBounds>
	</sfw>
</metadata>
<g id="Layer_2" display="none">
	<rect x="-25.45" y="-13.4" display="inline" fill="#FF2A62" stroke="#000000" stroke-miterlimit="10" width="329" height="145"/>
</g>
<g id="Layer_1_1_">
	<g>
		<path fill="#2A67B2" d="M114.1,114.202H55.2C24.7,114.202-0.1,89.4-0.1,58.9v-1.6C-0.1,25.6,25.6,0,57.199,0l0,0
			C88.6,0,114,25.5,114,56.8v57.4h0.1V114.202z"/>
		<g>
			<path fill="#FFFFFF" d="M3.5,60.799C3.5,29.2,29,3.7,60.6,3.7C76,3.7,90,9.8,100.2,19.7C89.8,7.7,74.4,0,57.199,0l0,0
				C25.5,0-0.1,25.7-0.1,57.3v1.6c0,18.7,9.302,35.2,23.5,45.2C11.199,93.6,3.5,78.1,3.5,60.799z"/>
		</g>
		<g display="none">
			<path display="inline" fill="#FFFFFF" d="M11.699,61.702V60.4C11.699,33.7,33.3,12.1,60,12.1c12.699,0,24.3,5,32.8,13.1
				c-8.7-9.2-21-14.9-34.7-14.9c-26.7,0-48.3,21.6-48.3,48.3v1.3c0,13.302,5.6,25.399,14.6,33.802
				C16.5,85.299,11.699,74,11.699,61.702z"/>
		</g>
		<path fill="#FFFFFF" d="M29.699,90.299h14.698c1.302,0,2.2-0.199,2.802-0.6c0.601-0.402,0.898-1,0.898-2c0-0.9-0.3-1.602-0.898-2
			c-0.602-0.4-1.602-0.602-2.802-0.602h-6c-1.6,0-3-0.102-4.1-0.301c-1.2-0.199-2.103-0.6-2.8-1.1c-0.699-0.6-1.301-1.3-1.601-2.3
			c-0.397-1-0.5-2.198-0.5-3.8c0-2.801,0.802-4.898,2.302-6.301c1.5-1.301,3.898-2,7.101-2h15v5.5H41.199
			c-1.602,0-2.802,0.101-3.602,0.399c-0.8,0.3-1.2,0.899-1.2,2c0,1.601,1.103,2.399,3.302,2.399H46c2.897,0,5.1,0.699,6.6,2
			c1.5,1.398,2.2,3.3,2.2,5.8c0,1.2-0.2,2.399-0.601,3.399c-0.399,1-0.899,1.9-1.5,2.601c-0.602,0.7-1.399,1.301-2.302,1.7
			C49.5,95.5,48.6,95.702,47.5,95.702h-18v-5.399h0.199V90.299z"/>
		<path fill="#FFFFFF" d="M70.6,95.799c-3.8,0-6.6-0.699-8.3-2.199c-1.8-1.5-2.601-4-2.601-7.398V69.5h7v16.201
			c0,0.897,0.101,1.6,0.198,2.197c0.103,0.602,0.4,1,0.7,1.398c0.3,0.302,0.8,0.602,1.4,0.699c0.6,0.103,1.397,0.201,2.3,0.201h5.6
			V69.5h7V95.9H70.6V95.799z"/>
		<path fill="#FFFFFF" d="M90,69.5h13.1c3.9,0,6.7,0.701,8.4,2.201c1.699,1.5,2.6,4,2.6,7.5V95.9h-7V80c0-0.899-0.1-1.699-0.2-2.299
			c-0.1-0.603-0.3-1.103-0.698-1.5c-0.302-0.4-0.802-0.603-1.399-0.803c-0.601-0.197-1.4-0.197-2.4-0.197h-5.6v20.6h-7V69.5H90z"/>
		<path fill="#FFFFFF" d="M130.199,95.799c-2.5,0-4.5-0.699-5.899-2.1c-1.4-1.4-2.101-3.5-2.101-6.201V74.702H117.3V69.4h4.899
			v-9.601h7V69.4h7.398v5.302h-7.398V85.4c0,1.802,0.301,3.2,0.898,4c0.602,0.802,1.8,1.2,3.602,1.2h2.898v5.3h-6.398V95.799z"/>
		<path fill="#FFFFFF" d="M152.4,95.799c-4.397,0-7.698-1.1-9.897-3.301c-2.2-2.199-3.301-5.5-3.301-9.898
			c0-4.301,1.101-7.602,3.301-9.898c2.199-2.201,5.5-3.399,9.897-3.399h10.2v5.5h-9.2c-1.1,0-2.1,0.1-2.897,0.198
			c-0.801,0.102-1.5,0.399-2,0.701c-0.5,0.398-0.9,0.898-1.2,1.5c-0.3,0.698-0.4,1.5-0.5,2.5h15.7v5.5h-15.7
			c0,1.101,0.2,2,0.399,2.601c0.301,0.6,0.601,1.1,1.198,1.5c0.603,0.399,1.2,0.6,2,0.698c0.802,0.102,1.802,0.201,2.9,0.201h9.3
			v5.5h-10.2V95.799L152.4,95.799z"/>
		<path fill="#FFFFFF" d="M179.4,95.799c-2.198,0-4.1-0.199-5.698-0.699c-1.602-0.5-3-1.301-4.199-2.5c-1.2-1.2-2.2-2.602-2.9-4.301
			s-1.1-3.6-1.1-5.6c0-2.102,0.3-4,1-5.802c0.699-1.8,1.6-3.198,2.897-4.399c1.2-1.199,2.603-2,4.2-2.5
			c1.601-0.5,3.5-0.699,5.7-0.699h9.5V75h-7.4c-1.5,0-2.8,0.101-3.897,0.301c-1.103,0.199-2,0.6-2.7,1.199
			c-0.7,0.601-1.2,1.301-1.601,2.301c-0.302,1-0.5,2.199-0.5,3.8s0.301,2.899,0.801,4s1.3,1.899,2.397,2.601
			c0.7,0.399,1.5,0.699,2.4,0.799c0.898,0.103,1.898,0.103,3.1,0.103h7.4v5.7h-9.4V95.799L179.4,95.799z"/>
		<path fill="#FFFFFF" d="M193.4,59.9h6.9V69.5h6.2c3.8,0,6.6,0.801,8.397,2.301s2.603,4,2.603,7.4V95.9h-7v-16
			c0-0.899-0.103-1.601-0.2-2.198c-0.101-0.602-0.4-1.102-0.8-1.5c-0.4-0.399-0.801-0.602-1.4-0.802
			c-0.6-0.198-1.398-0.198-2.3-0.198h-5.5v20.601h-6.9V59.9z"/>
		<path fill="#FFFFFF" d="M233.3,59.9h7.3v35.899h-7.3V59.9z"/>
		<path fill="#FFFFFF" d="M243.699,69.5h7.801l7.3,18.701l7.8-18.701h7.5l-11.8,26.299h-7.5L243.699,69.5z"/>
		<circle fill="#2A67B2" cx="225.5" cy="92" r="3.8"/>
		<path fill="#FFFFFF" d="M42.7,30.9c5.521,0,9.998,4.477,9.998,9.998c0,5.523-4.477,10.001-9.998,10.001
			c-5.525,0-10.002-4.478-10.002-10.001C32.698,35.377,37.175,30.9,42.7,30.9z"/>
	</g>
</g>
</svg>
